<?xml version="1.0" encoding="UTF-8"?><svg id="a" xmlns="http://www.w3.org/2000/svg" width="40" height="40" viewBox="0 0 40 40"><defs><style>.b{fill:#fff;}.c{fill:#383e42;}</style></defs><path class="c" d="m39.9,10.46s.03.06.03.08c.52,8.88-2.32,16.73-9.59,23.23-2.9,2.6-6.28,4.63-10.07,6.16-.22.09-.39.09-.6,0C9.4,35.61,3.04,28.65.63,19.04.16,17.18-.01,15.27,0,13.36c0-.96,0-1.91,0-2.89,1.66-.05,3.06-.55,4.18-1.59,1.11-1.04,1.6-2.28,1.51-3.71,2.6-.35,5.14-.87,7.59-1.69C15.73,2.65,18.02,1.58,19.96,0c4.06,3.14,9.04,4.41,14.3,5.18-.09,1.39.38,2.64,1.49,3.68,1.11,1.04,2.51,1.56,4.16,1.61ZM1.04,13.48c.01,1.97.21,3.93.74,5.85,2.43,8.91,8.37,15.45,17.88,19.61.23.1.41.09.63,0,4.35-1.82,8.06-4.33,11.11-7.55,3.91-4.12,6.31-8.81,7.19-14.08.31-1.87.32-3.74.33-5.62,0-.31-.11-.42-.46-.48-2.76-.51-4.9-2.55-5.21-4.96-.03-.24-.15-.32-.41-.37-1.23-.23-2.48-.44-3.69-.74-3.26-.8-6.32-1.94-8.98-3.79-.17-.12-.29-.08-.45.02-.63.4-1.25.82-1.92,1.17-3.17,1.69-6.65,2.66-10.28,3.27-.76.13-.76.12-.9.79,0,.04-.02.08-.03.12-.68,2.4-2.41,3.91-5.2,4.5-.29.06-.39.16-.38.42.02.62,0,1.23,0,1.85Z"/><path class="c" d="m2.81,12.19c.92-.18,1.77-.49,2.53-.97,1.49-.95,2.38-2.21,2.66-3.78.03-.2.16-.22.33-.25,2.69-.43,5.29-1.1,7.76-2.12,1.37-.57,2.67-1.24,3.86-2.07.03.01.07.02.09.03,2.54,1.73,5.46,2.8,8.55,3.55,1.01.24,2.05.42,3.08.61.17.03.24.09.27.24.52,2.45,2.18,4.02,4.96,4.71.13.03.25.04.25.21.09,3.12-.22,6.2-1.35,9.18-2.67,7.07-7.84,12.31-15.56,15.68-.2.09-.35.09-.55,0-8.65-3.82-14.05-9.82-16.25-17.94-.63-2.32-.73-4.68-.64-7.09Z"/><path class="b" d="m5.1,22.64v-7.82h2.31c.69,0,1.3.15,1.84.46s.95.74,1.24,1.31c.29.57.44,1.21.44,1.94v.39c0,.74-.15,1.39-.44,1.96-.29.56-.72,1-1.26,1.3s-1.17.46-1.88.46h-2.25Zm1.36-6.72v5.64h.89c.71,0,1.26-.22,1.64-.67.38-.45.58-1.09.58-1.92v-.44c0-.85-.18-1.5-.55-1.94-.37-.45-.9-.67-1.61-.67h-.95Z"/><path class="b" d="m15.16,19.63h-1.51v3.01h-1.36v-7.82h2.75c.9,0,1.6.2,2.09.61.49.41.74.99.74,1.76,0,.52-.13.96-.38,1.31-.25.35-.6.62-1.05.81l1.76,3.26v.07h-1.46l-1.57-3.01Zm-1.51-1.1h1.4c.46,0,.82-.12,1.07-.35.26-.23.39-.55.39-.95s-.12-.74-.36-.97-.59-.35-1.07-.35h-1.43v2.62Z"/><path class="b" d="m23.52,20.82h-3.03l-.63,1.82h-1.41l2.95-7.82h1.22l2.96,7.82h-1.42l-.64-1.82Zm-2.65-1.1h2.27l-1.13-3.24-1.13,3.24Z"/><path class="b" d="m32.39,20.71l1.2-5.89h1.35l-1.8,7.82h-1.3l-1.49-5.71-1.52,5.71h-1.3l-1.8-7.82h1.35l1.21,5.88,1.49-5.88h1.14l1.48,5.89Z"/></svg>