<?xml version="1.0" encoding="utf-8"?>
<!-- Generator: Adobe Illustrator 26.0.3, SVG Export Plug-In . SVG Version: 6.00 Build 0)  -->
<svg version="1.1" id="Layer_1" xmlns="http://www.w3.org/2000/svg" xmlns:xlink="http://www.w3.org/1999/xlink" x="0px" y="0px"
	 viewBox="0 0 40 40" style="enable-background:new 0 0 40 40;" xml:space="preserve">
<style type="text/css">
	.st0{fill:#383E42;}
	.st1{fill:#FFFFFF;}
</style>
<g>
	<path class="st0" d="M39.9,10.46c0.02,0.04,0.03,0.06,0.03,0.08c0.52,8.88-2.32,16.73-9.59,23.23c-2.9,2.6-6.28,4.63-10.07,6.16
		c-0.22,0.09-0.39,0.09-0.6,0C9.4,35.61,3.04,28.65,0.63,19.04C0.16,17.18-0.01,15.27,0,13.36c0.01-0.96,0-1.91,0-2.89
		c1.66-0.05,3.06-0.55,4.18-1.59c1.11-1.04,1.6-2.28,1.51-3.71c2.6-0.35,5.14-0.87,7.59-1.69c2.46-0.83,4.74-1.9,6.68-3.48
		c4.06,3.14,9.04,4.41,14.3,5.18c-0.09,1.39,0.38,2.64,1.49,3.68C36.86,9.9,38.25,10.42,39.9,10.46z M1.04,13.48
		c0.01,1.97,0.21,3.93,0.74,5.85c2.43,8.91,8.37,15.45,17.88,19.61c0.23,0.1,0.41,0.09,0.63,0c4.35-1.82,8.06-4.33,11.11-7.55
		c3.91-4.12,6.31-8.81,7.19-14.08c0.31-1.87,0.32-3.74,0.33-5.62c0-0.31-0.11-0.42-0.46-0.48c-2.76-0.51-4.9-2.55-5.21-4.96
		C33.22,6,33.11,5.92,32.85,5.87c-1.23-0.23-2.48-0.44-3.69-0.74c-3.26-0.8-6.32-1.94-8.98-3.79c-0.17-0.12-0.29-0.08-0.45,0.02
		c-0.63,0.4-1.25,0.82-1.92,1.17c-3.17,1.69-6.65,2.66-10.28,3.27C6.77,5.93,6.77,5.93,6.64,6.6C6.63,6.63,6.62,6.67,6.61,6.71
		c-0.68,2.4-2.41,3.91-5.2,4.5c-0.29,0.06-0.39,0.16-0.38,0.42C1.05,12.25,1.04,12.86,1.04,13.48z"/>
	<path class="st0" d="M2.81,12.19c0.92-0.18,1.77-0.49,2.53-0.97C6.82,10.27,7.72,9.01,8,7.44c0.03-0.2,0.16-0.22,0.33-0.25
		c2.69-0.43,5.29-1.1,7.76-2.12C17.46,4.5,18.76,3.82,19.95,3c0.03,0.01,0.07,0.02,0.09,0.03c2.54,1.73,5.46,2.8,8.55,3.55
		c1.01,0.24,2.05,0.42,3.08,0.61c0.17,0.03,0.24,0.09,0.27,0.24c0.52,2.45,2.18,4.02,4.96,4.71c0.13,0.03,0.25,0.04,0.25,0.21
		c0.09,3.12-0.22,6.2-1.35,9.18c-2.67,7.07-7.84,12.31-15.56,15.68c-0.2,0.09-0.35,0.09-0.55,0C11.05,33.4,5.65,27.41,3.45,19.28
		C2.82,16.96,2.71,14.6,2.81,12.19z"/>
</g>
<g>
	<path class="st1" d="M11.37,22.64h-1.35v-3.47h-3.5v3.47H5.16v-7.82h1.36v3.25h3.5v-3.25h1.35V22.64z"/>
	<path class="st1" d="M19.22,18.94c0,0.77-0.13,1.44-0.4,2.02c-0.27,0.58-0.64,1.02-1.14,1.33c-0.49,0.31-1.06,0.46-1.7,0.46
		c-0.63,0-1.2-0.15-1.69-0.46c-0.5-0.31-0.88-0.75-1.15-1.32c-0.27-0.57-0.41-1.23-0.41-1.98v-0.44c0-0.76,0.14-1.44,0.41-2.02
		c0.27-0.58,0.65-1.03,1.14-1.34c0.49-0.31,1.06-0.46,1.69-0.46s1.2,0.15,1.69,0.46c0.49,0.31,0.87,0.75,1.14,1.32
		c0.27,0.58,0.4,1.24,0.41,2.01V18.94z M17.86,18.53c0-0.87-0.16-1.53-0.49-1.99c-0.33-0.46-0.79-0.69-1.39-0.69
		c-0.59,0-1.05,0.23-1.38,0.69c-0.33,0.46-0.5,1.11-0.51,1.95v0.45c0,0.86,0.17,1.52,0.5,1.99c0.33,0.47,0.8,0.7,1.39,0.7
		c0.6,0,1.06-0.23,1.39-0.69c0.32-0.46,0.49-1.13,0.49-2.01V18.53z"/>
	<path class="st1" d="M22.34,14.82l2.26,5.99l2.25-5.99h1.76v7.82h-1.35v-2.58l0.13-3.45l-2.31,6.03H24.1l-2.3-6.02l0.13,3.44v2.58
		h-1.35v-7.82H22.34z"/>
	<path class="st1" d="M34.77,19.15h-3.21v2.41h3.75v1.08H30.2v-7.82h5.08v1.1h-3.72v2.16h3.21V19.15z"/>
</g>
</svg>
