<?xml version="1.0"?>
<svg xmlns="http://www.w3.org/2000/svg" viewBox="0 0 280 188.39" width="360" height="200"><defs><style>.cls-1{fill:#fff;}.cls-2{fill:#e40707;}</style></defs><g id="&#x421;&#x43B;&#x43E;&#x439;_2" data-name="&#x421;&#x43B;&#x43E;&#x439; 2"><g id="&#x421;&#x43B;&#x43E;&#x439;_1-2" data-name="&#x421;&#x43B;&#x43E;&#x439; 1"><circle class="cls-1" cx="140" cy="69.44" r="68.07"/><path class="cls-2" d="M47.71,157.39c1.17,1,2.4,2.07,3.64,3.11-.78.58-1.63,1.1-2.4,1.68a8.85,8.85,0,0,1,.32,8.43,8.19,8.19,0,0,1-7.13,4c-1.23.06-2.53-.46-3.7.26-.51.19-1.29,1-.45,1.36a5.58,5.58,0,0,0,2.92-.07c2.79-.52,6-.58,8.43,1,3,2.14,2.59,7.19-.46,9.07-5.12,3.31-12.12,2.72-17.11-.65,1.1-1.29,2.2-2.59,3.3-3.82a9.17,9.17,0,0,0,10.31,1.36,1.58,1.58,0,0,0,.65-2.14,1.84,1.84,0,0,0-.91-.78c-3-.9-6,.46-9-.06-1.62-.13-3.44-1.1-3.57-2.92-.32-1.94,1.37-3.31,2.86-4.15a7.64,7.64,0,0,1-2.27-10.95c2.92-3.83,8.49-4.22,12.64-2.4ZM39.22,163c-2.53,1-2.92,4.74-1.1,6.49a4.51,4.51,0,0,0,4.47.84c2.27-.84,2.86-4.15,1.56-6A4.11,4.11,0,0,0,39.22,163Zm235.14-3.37,2-2.2c1.17,1,2.4,2.07,3.63,3.11-.78.58-1.62,1.1-2.4,1.68a8.71,8.71,0,0,1,.65,7.59,7.59,7.59,0,0,1-5.9,4.6,21.39,21.39,0,0,1-4.08,0c-.78.26-1.95.46-2,1.49.77.85,1.94.46,2.91.33,2.79-.59,5.9-.71,8.5.78,3,1.75,3,6.61.45,8.75a13.4,13.4,0,0,1-9.21,2.66,16.24,16.24,0,0,1-8.55-2.86c1.1-1.29,2.2-2.52,3.24-3.82a9.58,9.58,0,0,0,7,2.33c1.43-.19,3.24-.32,4.08-1.75a1.77,1.77,0,0,0-1.62-2.27c-3.17-.45-6.48.91-9.59-.19a3.14,3.14,0,0,1-2.4-3.11c-.07-1.75,1.56-2.92,2.85-3.7a7.64,7.64,0,0,1-2.27-10.95C264.7,158.23,270.28,157.78,274.36,159.59ZM267.81,163c-2.79,1.11-2.85,5.64-.32,7,1.68.91,4.21.72,5.31-1a4.48,4.48,0,0,0-.45-5.25A4.27,4.27,0,0,0,267.81,163Zm-175.1-2.2c3.3-3.11,8.81-2.79,12.25,0a9.78,9.78,0,0,1,11.15-.84,7.08,7.08,0,0,1,2.85,6v14.2h-5.18v-12.9a4.54,4.54,0,0,0-1.24-3.63,4.43,4.43,0,0,0-6.28,1.23c-.13,5.12,0,10.18-.07,15.3H101c0-4.73.07-9.47,0-14.2.07-2.79-3.5-3.89-5.57-2.66-.78.52-2,1.1-2,2.21-.07,4.86,0,9.72,0,14.65H88.23V159H91.8Zm30.92,1.55c3.83-4.47,11-4.92,15.62-1.36a9.49,9.49,0,0,1,3,10.12H126.35a5.36,5.36,0,0,0,3.31,4.73,8.93,8.93,0,0,0,8.49-1.23c.65,1.23,1.36,2.53,2,3.82-3,2.08-6.87,2.27-10.44,2a9.65,9.65,0,0,1-8.1-6.29C120.32,170.16,120.78,165.43,123.63,162.31Zm6.22.78c-1.81.59-2.85,2.4-3.3,4.22h10.89c-.32-1.36-.65-2.73-1.82-3.57A6.69,6.69,0,0,0,129.85,163.09Zm45-3.3a16.85,16.85,0,0,1,11.67-.33,6.64,6.64,0,0,1,4.08,5.19c.78,3.69.19,7.39.58,11.08A5.23,5.23,0,0,0,192.8,179a3.77,3.77,0,0,1-4.08,1.3,4.55,4.55,0,0,1-2.4-2.27,8.31,8.31,0,0,1-5.77,2.4,8.41,8.41,0,0,1-6.35-2.08c-1.75-1.75-2-4.6-1.3-6.93s2.85-3.83,5.12-4.61a16.92,16.92,0,0,1,7.85-.52,3.6,3.6,0,0,0-2-3.11,11.13,11.13,0,0,0-7.91.39C175.56,162.38,175.17,161.08,174.85,159.79ZM179.12,171c-1.81,1.1-1.94,4.48.2,5.25a5.84,5.84,0,0,0,5.44-.84c1.37-1.36,1-3.44,1.11-5.25C183.6,169.83,181.07,169.77,179.12,171ZM199,160.76c3.24-3.11,8.81-2.79,12.19,0a9.68,9.68,0,0,1,11.08-.84,6.9,6.9,0,0,1,2.85,6c.07,4.73,0,9.47,0,14.26H220v-12.9a4.79,4.79,0,0,0-1.23-3.69,4.54,4.54,0,0,0-6.36,1.23c-.13,5.12,0,10.18-.06,15.3h-5.19c-.06-4.73.07-9.47-.06-14.2,0-2.79-3.57-3.89-5.64-2.66-.78.52-2,1.1-2,2.21v14.65h-5.19V159h3.57A10.37,10.37,0,0,1,199,160.76Zm44.86.13c2.53-2.53,6.55-2.79,9.79-1.75a7.67,7.67,0,0,1,5,7c.13,4.67,0,9.34.07,14h-5.19V167.7c0-1.63-.39-3.51-1.88-4.35a6.25,6.25,0,0,0-7.13,1.36c-.07,5.12,0,10.25,0,15.37h-5.19V159h3.76A12.48,12.48,0,0,0,243.89,160.89ZM21.46,159h8.1v21.07H24.31V163H21.46C21.52,161.73,21.46,160.37,21.46,159Zm54.72,0h8.1v21.07H79V163H76.18Zm151,0h8.1v21.07h-5.18V163h-2.86C227.23,161.67,227.23,160.37,227.23,159ZM152,153.76a16.5,16.5,0,0,1,11.15-2.92,13.2,13.2,0,0,1,7.26,2.79c-.78,1.36-1.49,2.79-2.27,4.15-2.59-1.75-5.71-2.92-8.82-2.14a8.75,8.75,0,0,0-6.74,6.8,13,13,0,0,0,1.17,9.6c2.52,4.15,8.62,5.25,12.57,2.53v-5.71h-4.21v-4.41h9.59v13a19.29,19.29,0,0,1-11.08,3.11,13.34,13.34,0,0,1-10.31-4.15c-3.37-3.56-4.21-8.81-3.5-13.61A13.68,13.68,0,0,1,152,153.76ZM.13,151.23c3-.07,5.9-.26,8.88-.26a12.32,12.32,0,0,1,7.39,2.14,6.67,6.67,0,0,1,2.08,6.94,6.73,6.73,0,0,1-3.5,3.69,7.78,7.78,0,0,1,4.79,4c1.23,2.85,1,6.48-1.16,8.82A11.87,11.87,0,0,1,9.79,180c-3.24.07-6.55,0-9.79,0Zm5.38,4.15v6.87c2,.06,4.21.32,6.09-.58,2.14-1,2.47-4.48.39-5.64S7.71,155.38,5.51,155.38Zm0,11v9.47c2.27.13,4.6.32,6.74-.45,3.57-1.11,3.7-7.4.13-8.5C10.24,166.07,7.84,166.27,5.51,166.33Zm16-15h8v4.54h-8.1C21.46,154.34,21.52,152.78,21.52,151.29ZM53,151.23H74.49v4.6H68.07v24.25H62.63V155.83H53Zm23.21,4.6v-4.54h8v4.54Zm151.11-4.54h8.11v4.54h-8C227.29,154.34,227.29,152.78,227.29,151.29Z"/><path id="Shape" class="cls-2" d="M134.09.25c37.52-3.23,70.49,25,73.73,63.24a70.09,70.09,0,0,1-24.32,59.38,67.11,67.11,0,0,1-85.19,1.49C68.58,100.83,63.15,57.19,86.24,26.84A68,68,0,0,1,134.09.25Zm.52,2.36C98.4,5.59,71.38,38,74.26,74.86s34.64,64.46,70.85,61.48,63.23-35.24,60.35-72.24a67.6,67.6,0,0,0-30.35-51.25A64.78,64.78,0,0,0,134.61,2.61Z"/><path id="Shape-2" data-name="Shape" class="cls-2" d="M130.5,6.11C161.9,1.21,192,21,200.56,52.21c4.72,17.23,2.18,36.64-7.61,51.6-8.92,4.11-19,4.81-28.6,4.37-16.09-.79-31.84-5.07-48-5.51-9.09-.26-18.45,1-26.94,4.72C68.84,78.88,74.87,38.74,102.86,17.83A62.35,62.35,0,0,1,130.5,6.11ZM140,7.34c-1.32,3.93-2.54,7.87-3.85,11.89-4.11,0-8.22-.09-12.33.09,3.32,2.45,6.64,4.9,10,7.43-1.23,3.94-2.54,7.88-3.76,11.9l10-7.35,10,7.35c-1.23-3.94-2.54-8-3.76-11.9,3.32-2.45,6.64-4.89,10-7.43-4.11-.09-8.22,0-12.34,0C142.48,15.21,141.17,11.27,140,7.34Zm-28.6,15.48c-.44,2-.7,4-1.14,6l-6,.79,5.34,3c-.35,2-.7,4.11-1.05,6,1.49-1.4,3-2.8,4.46-4.29,1.75,1,3.5,2,5.34,2.89-.88-1.84-1.75-3.76-2.63-5.6,1.49-1.4,3-2.88,4.38-4.28l-6,.78C113.1,26.58,112.22,24.74,111.35,22.82Zm54.57,5.6-6-.79c1.48,1.49,2.88,2.88,4.37,4.28-.87,1.84-1.75,3.76-2.62,5.6L167,34.63c1.49,1.39,3,2.88,4.46,4.28-.43-2-.7-4.11-1.05-6.12,1.75-1,3.5-2,5.34-3l-6-.78c-.43-2-.7-4.11-1.13-6C167.67,24.74,166.8,26.58,165.92,28.42ZM92.19,37.25l.26,3.67L89,42.32l3.5.88.26,3.67c.62-1,1.23-2.1,1.93-3.06l3.5.79L96,41.8l1.93-3.15-3.41,1.4A34.35,34.35,0,0,0,92.19,37.25Zm93.15,2.8L182,38.65l1.92,3.15c-.79,1-1.57,1.83-2.36,2.8l3.5-.79L187,46.87l.26-3.67,3.5-.88-3.32-1.4.26-3.67Zm-83.88,6.38A15.16,15.16,0,0,0,92,53.52c-.18,12.59,0,25.19-.09,37.87a28.77,28.77,0,0,0,9.45,4.28c3.93,1,8,.79,12,.53s8.13-1.31,11.11-4.11c4.63-4.11,6-11.37,3.58-17.14-1.31-3.24-4.2-5.51-7.26-6.91,3.06-1.93,5.42-5.25,5.25-9,.09-6.74-5.69-12.6-12.07-13.3A33.89,33.89,0,0,0,101.46,46.43Zm17.32-1c4.55,1.66,7.52,5.86,9.1,10.32h6v40.5h10.32V55.79h5.69c3.06-4.63,7.34-8.57,12.59-10.32C147.91,45.56,133.3,45.47,118.78,45.47Zm45,1.4a22.55,22.55,0,0,0-12.77,11.46c-2.88,5.86-3.32,12.59-2.36,19a24,24,0,0,0,8.66,15.48c4.55,3.58,10.5,4.72,16,4.28s11.45-2,15.92-5.68V67.16h-16.8v9.27H179V85.7c-3.41,2.36-8,2.36-11.81,1-4.19-1.67-7.08-5.86-7.95-10.24a23.6,23.6,0,0,1,1.05-13.29,12.54,12.54,0,0,1,8.83-7.79c5-1.31,10.14.88,13.91,4.11,1.48-2.88,2.88-5.77,4.46-8.65C181.23,45,171.7,44.25,163.82,46.87Z"/><path class="cls-2" d="M104.17,57.19c2.63-3.24,8.66-2.71,10.41,1.31.7,2.19-.26,5.25-2.71,5.86-2.8.79-5.68.35-8.57.44C103.47,62.35,102.69,59.46,104.17,57.19Zm-.87,16c3.59.17,7.35-.53,10.76.87,5,2,4.63,10.67-.35,12.42-3.41.44-7.17.7-10.41-1Zm19.77,32.44c18.28,1.84,36.47,6.83,54.92,4.64a47.82,47.82,0,0,0,12.86-3.15,57.5,57.5,0,0,1-10.93,11.63,35.56,35.56,0,0,1-10.15-.08c-9.88-1.32-19.33-4.38-28.77-7.53C135.05,109.32,129.19,107,123.07,105.64Zm-12,3.94c7.88.18,15.4,2.89,22.92,5.34,12.42,4,24.66,8.92,37.78,10A65.13,65.13,0,0,1,154,132c-.88.26-1.58-.44-2.36-.7-7.79-4.37-15.22-9.36-23-14C123.07,114,117.29,111.07,111.08,109.58Zm-9.79,10.5c5.51.35,11.11,1.13,16.09,3.58,5.69,2.54,10.67,6.21,15.74,9.71A65.14,65.14,0,0,1,101.29,120.08Z"/></g></g></svg>
