<?xml version="1.0" encoding="UTF-8"?>
<svg id="Layer_1" data-name="Layer 1" xmlns="http://www.w3.org/2000/svg" version="1.1" viewBox="0 0 200 200">
  <defs>
    <style>
      .cls-1 {
        fill: #7c7c7c;
        stroke-width: 0px;
      }

      .cls-2 {
        opacity: .2;
      }
    </style>
  </defs>
  <g class="cls-2">
    <path class="cls-1" d="M170.9,45.1l-57.5-18.8c-1.1-.4-2.2-.5-3.4-.5h0c-3.5,0-6.7,1.7-8.8,4.4l-9.8-1.8c-1.1-.2-2.3-.2-3.4,0h0c-3.5.5-6.4,2.6-8.1,5.6l-10-.4c-1.2,0-2.3,0-3.4.4h0c-3.4,1-6,3.5-7.2,6.7l-9.9,1c-1.2.1-2.3.4-3.3.9h0c-3.2,1.4-5.5,4.3-6.2,7.6l-9.7,2.4c-1.1.3-2.2.7-3.2,1.3h0c-4,2.5-5.9,7.3-4.8,11.9l22.6,91.5c1.4,5.8,7.4,9.4,13.2,8l53.8-13.3,4.6-.5,4.6.2,4.5.8,9.2,3c1.1.4,2.2.5,3.4.5,4.7,0,8.9-3,10.4-7.5l29.3-89.6c1.9-5.7-1.3-11.9-7-13.8ZM174.6,57.7l-29.3,89.6c-1,3.1-3.9,5.1-7,5.1s-1.5-.1-2.3-.4l-57.5-18.8c-3.9-1.3-6-5.5-4.7-9.4l29.3-89.6c1-3.1,3.9-5.1,7-5.1.8,0,1.5.1,2.3.4l57.5,18.8c3.9,1.3,6,5.5,4.7,9.4ZM48.3,156.3l-22.6-91.5c-.8-3.2.6-6.4,3.3-8.1.6-.4,1.4-.7,2.2-.9l8.7-2.1.4,4.2-7.8,1.9c-2.2.5-3.5,2.7-2.9,4.9l19.6,79.5.3,3.1c.2,1.7.7,3.3,1.6,4.6l.7,2.7c.5,2.2,2.7,3.5,4.9,2.9l2.4-.6c.8,0,1.6.1,2.4,0l25.6-2.6-29.7,7.3c-4,1-8-1.4-9-5.4ZM69.9,37l8.9.3-.7,4.2-8-.3c-2.2,0-4.1,1.7-4.2,3.9l-3,81.8-.5,3.1c-.3,1.7-.2,3.3.3,4.9v2.8c-.2,2.2,1.5,4.1,3.8,4.2h2.5c.7.4,1.5.6,2.3.8l25.4,4.5-30.6-1.1c-4.1-.2-7.3-3.6-7.1-7.7l3.5-94.2c.1-3.3,2.4-6,5.4-6.9.7-.2,1.5-.3,2.3-.3ZM90.8,31.8l8.8,1.6-1.3,4-7.9-1.4c-2.2-.4-4.3,1.1-4.7,3.3l-14.4,80.6-1,3c-.5,1.6-.6,3.3-.4,4.9l-.5,2.8c-.4,2.2,1.1,4.3,3.3,4.7l2.4.4c.7.4,1.4.8,2.2,1l24.5,8-30.1-5.4c-4-.7-6.7-4.6-6-8.6l16.6-92.8c.6-3.2,3.2-5.6,6.3-6,.8-.1,1.5,0,2.3,0ZM58.7,44.2l-.2,4.2-8,.8c-2.2.2-3.8,2.2-3.6,4.4l8.4,81.4v3.1c-.2,1.7.2,3.3.8,4.8l.3,2.8c.2,2.2,2.2,3.8,4.4,3.6l2.4-.3c.8.2,1.6.3,2.4.4l25.7,1-30.5,3.1c-4.1.4-7.7-2.5-8.1-6.6l-9.6-93.8c-.3-3.3,1.5-6.3,4.4-7.5.7-.3,1.5-.5,2.3-.6l8.9-.9Z"/>
    <path class="cls-1" d="M108.8,43l1.3.4,1.4-9.2-1.9-.6-4.2,8.3,1.4.4.7-1.5,1.5.5-.3,1.6ZM108.1,39.9l2-4.2h0s-.8,4.6-.8,4.6l-1.2-.4Z"/>
    <path class="cls-1" d="M142,141.8l-1.4-.4-.7,1.5-1.5-.5.3-1.6-1.3-.4-1.4,9.2,1.9.6,4.2-8.3ZM139.5,143.8l-2,4.2h0s.8-4.6.8-4.6l1.2.4Z"/>
    <path class="cls-1" d="M143.9,137.2c.3-.9-.6-2-2-1.6,0,0,.2-.9,1.1-1.1l-1.1-.4-1.1-.4c.6.7.2,1.5.2,1.5-.9-1.2-2.2-.8-2.5.1-.3.9-.2,1.3.5,2.6.8,1.2.9,2.5.9,2.5,0,0,.9-1,2.2-1.5,1.3-.5,1.6-.8,1.9-1.8Z"/>
    <path class="cls-1" d="M133.5,96.5c1.1-3.5.9-5-1.9-9.4-2.8-4.5-3.2-9.3-3.2-9.3,0,0-3.2,3.7-8,5.6-4.9,1.9-6,3-7.1,6.5-1.1,3.5,2.1,7.4,7.3,5.9,0,0-.6,3-3.8,4l4.1,1.3,4.1,1.3c-2-2.6-.8-5.5-.8-5.5,3.3,4.3,8.2,3.1,9.4-.4Z"/>
    <path class="cls-1" d="M104.5,49.2l1.1.4,1.1.4c-.6-.7-.2-1.5-.2-1.5.9,1.2,2.2.8,2.5-.1.3-.9.2-1.3-.5-2.6-.8-1.2-.9-2.5-.9-2.5,0,0-.9,1-2.2,1.5-1.3.5-1.6.8-1.9,1.8-.3.9.6,2,2,1.6,0,0-.2.9-1.1,1.1Z"/>
    <path class="cls-1" d="M82.4,128.1l51.5,16.9.4-1.2-51.5-16.9c-.9-.3-1.4-1.2-1.1-2.1l23.8-72.6-1.2-.4-23.8,72.6c-.5,1.6.3,3.3,1.9,3.8Z"/>
    <path class="cls-1" d="M167.7,57.3c.5-1.6-.3-3.3-1.9-3.8l-50.9-16.6-.4,1.2,50.9,16.6c.9.3,1.4,1.2,1.1,2.1l-24.4,74.6,1.2.4,24.4-74.6Z"/>
  </g>
</svg>